<svg width="147" height="146" viewBox="0 0 147 146" fill="none" xmlns="http://www.w3.org/2000/svg">
<path id="Combined Shape" fill-rule="evenodd" clip-rule="evenodd" d="M8.84577 1.4839L8.84574 1.48394L8.84573 1.48395L8.8456 1.48408C8.76141 1.5724 8.67362 1.66449 8.57995 1.76116C7.683 1.179 7.42387 1.16415 6.84955 1.83187L6.81258 1.87475C6.53536 2.19596 6.24085 2.53722 6.24124 3.04663C6.24161 3.29372 6.19682 3.54052 6.15198 3.78765C6.10923 4.02324 6.06642 4.25914 6.06262 4.4959C6.04771 5.47226 6.15671 6.42866 6.80851 7.23162C7.01804 7.48945 7.21481 7.75771 7.41863 8.03559L7.41864 8.0356C7.51285 8.16404 7.60857 8.29454 7.70775 8.42701L8.1034 8.48261C8.15112 8.48932 8.19895 8.49557 8.24678 8.50182L8.24681 8.50182L8.24685 8.50183L8.24688 8.50183L8.24691 8.50184L8.24694 8.50184L8.24698 8.50185L8.24701 8.50185L8.24704 8.50186L8.24707 8.50186L8.24711 8.50186L8.24714 8.50187L8.24717 8.50187L8.24721 8.50188L8.24724 8.50188L8.24727 8.50189L8.2473 8.50189L8.24734 8.5019L8.24737 8.5019L8.2474 8.50191L8.24743 8.50191L8.24747 8.50192L8.2475 8.50192L8.24754 8.50193L8.24758 8.50193L8.24762 8.50194L8.24766 8.50194L8.2477 8.50195L8.24774 8.50195L8.24778 8.50196L8.24782 8.50197L8.24786 8.50197L8.2479 8.50198L8.24794 8.50198L8.24798 8.50199L8.24802 8.50199L8.24806 8.502L8.2481 8.502L8.24814 8.50201L8.24818 8.50202L8.24823 8.50202L8.24827 8.50203L8.24831 8.50203L8.24835 8.50204L8.24839 8.50204C8.34427 8.51458 8.4402 8.52711 8.53547 8.54334C9.28009 8.67 9.28052 8.67232 9.45289 9.60651L9.45689 9.6282C9.47296 9.7157 9.51256 9.80579 9.55143 9.89419C9.61024 10.028 9.66734 10.1578 9.63862 10.2691C9.46773 10.9285 9.80659 11.3216 10.2356 11.7067L10.5865 10.9531L10.9767 10.115L11.1828 10.1871L10.9566 11.7962C11.9208 12.1643 12.1112 11.5197 12.2889 10.9183C12.2999 10.8809 12.3109 10.8437 12.322 10.8069C12.8834 11.1621 13.3406 11.2719 13.713 10.7214C14.0126 10.2786 14.1822 10.5109 14.3553 10.7477L14.3553 10.7477L14.3553 10.7478C14.3791 10.7803 14.4029 10.8129 14.4272 10.8439C15.1368 10.0363 15.5494 9.00845 15.5962 7.93244C15.6654 7.09929 15.7917 6.27111 15.9181 5.44277L15.9181 5.4427L15.9181 5.44262L15.9181 5.44255L15.9181 5.44247L15.9181 5.4424L15.9181 5.44232L15.9182 5.44225L15.9182 5.44217L15.9182 5.4421L15.9182 5.44202L15.9182 5.44195L15.9182 5.44187L15.9182 5.4418L15.9182 5.44172L15.9182 5.44165L15.9183 5.44157L15.9183 5.4415L15.9183 5.44142L15.9183 5.44134L15.9183 5.44127L15.9183 5.44119L15.9183 5.44112C15.9833 5.01519 16.0483 4.58922 16.1055 4.16251C16.1274 3.91212 16.1367 3.66079 16.1334 3.4095L15.9844 3.39524L15.6487 4.77199C15.5371 4.39303 15.5189 3.9923 15.5956 3.60436C15.6403 3.22951 15.6563 2.8518 15.6433 2.47459C15.5962 2.12809 15.5255 1.78532 15.4314 1.44873L15.1058 2.08699C14.7399 1.12028 14.7386 1.12041 13.7966 1.21414L13.7891 1.21488C13.6602 1.22746 13.454 1.24406 13.4085 1.17689C13.1612 0.804841 12.9497 0.85048 12.5781 1.04742C12.4912 1.09339 12.3494 1.00702 12.1932 0.911864C12.0491 0.824137 11.8928 0.728947 11.756 0.723131C11.3962 0.726822 11.0416 0.810298 10.7172 0.96761C10.5025 1.06231 10.3544 0.95225 10.2102 0.84505C10.0772 0.746176 9.9474 0.649736 9.77166 0.718639C9.63956 0.760975 9.51629 0.827393 9.40801 0.914576C9.22073 1.09057 9.04312 1.27688 8.84577 1.4839ZM34.2354 18.6074C34.0609 18.6369 33.8576 18.4959 33.4584 18.2191C33.3578 18.33 33.233 18.4134 33.107 18.4976C32.8386 18.677 32.5648 18.86 32.508 19.3199C32.4238 19.9229 32.5681 20.5353 32.9122 21.0355C32.9502 21.0934 32.987 21.1557 33.0241 21.2185C33.1432 21.4199 33.2659 21.6276 33.4432 21.7206C33.9627 21.9934 34.2641 22.4461 34.5648 22.8977C34.7109 23.1172 34.8569 23.3364 35.0277 23.5346C35.6325 24.2377 35.7437 25.1507 35.6864 26.0029C35.5477 28.0717 36.3983 29.8267 37.2482 31.5804L37.317 31.7223C37.5927 32.2898 38.1698 32.4655 38.7557 32.6439C38.8557 32.6744 38.956 32.7049 39.0551 32.7375L39.1037 32.7535C40.1788 33.107 40.4315 33.1901 40.9649 32.4456L41.0232 32.3637C41.3565 31.8944 41.5736 31.5887 42.0991 32.203C42.138 32.2498 42.3504 32.1596 42.5148 32.0897L42.5393 32.0794C42.5593 32.0709 42.5784 32.0628 42.5961 32.0556C42.6628 32.028 42.7449 31.9768 42.8201 31.9299L42.8201 31.9298C42.9214 31.8667 43.0102 31.8113 43.0322 31.8318C43.5626 32.3398 43.6867 31.7869 43.7488 31.51L43.752 31.496C43.773 31.4024 43.795 31.3081 43.8171 31.2132L43.8172 31.2132L43.8172 31.2132L43.8172 31.2131L43.8172 31.2129C43.9631 30.5872 44.1142 29.9395 44.0364 29.3323C44.0089 29.1189 44.0026 28.8979 43.9962 28.6757L43.9962 28.6756L43.9962 28.6756L43.9962 28.6755L43.9962 28.6755L43.9962 28.6754L43.9962 28.6753L43.9962 28.6753L43.9962 28.6752L43.9962 28.6751L43.9962 28.6751L43.9962 28.675L43.9962 28.6749L43.9962 28.6749L43.9962 28.6748L43.9962 28.6747L43.9962 28.6747L43.9962 28.6746L43.9962 28.6746L43.9962 28.6745L43.9962 28.6744L43.9962 28.6744L43.9962 28.6743L43.9962 28.6742L43.9962 28.6742C43.9802 28.1167 43.964 27.552 43.615 27.0813C43.3597 26.7929 43.261 26.397 43.3506 26.021C43.3584 25.8395 43.3143 25.6596 43.2235 25.5027C43.1759 25.3927 43.1287 25.2824 43.0815 25.172C42.8769 24.6937 42.6721 24.2148 42.4281 23.7576C42.2641 23.4505 42.079 23.155 41.8938 22.8595C41.7046 22.5575 41.5154 22.2555 41.3489 21.9413C41.1135 21.4976 40.8394 21.0749 40.569 20.6578L40.5689 20.6577L40.5684 20.657C40.5148 20.5743 40.4614 20.4919 40.4084 20.4095C40.3476 20.315 40.2878 20.2185 40.2278 20.1215L40.2278 20.1215C39.8221 19.4663 39.4036 18.7904 38.5509 18.548C37.9501 18.3455 37.3606 18.1105 36.7851 17.844C36.4081 18.1343 36.0141 18.0561 35.6217 17.9782C35.3697 17.9282 35.1184 17.8783 34.8728 17.9262C34.5667 18.3627 34.4165 18.5768 34.2354 18.6074ZM127.624 128.297C128 127.06 128.62 126 129.713 125.363C129.717 125.138 129.718 124.931 129.718 124.738L129.718 124.737L129.718 124.735L129.718 124.735C129.719 124.35 129.72 124.016 129.75 123.687C129.811 123.037 129.728 122.355 129.132 122.107C128.421 121.812 128.022 121.463 128.099 120.668C128.096 120.575 128.051 120.488 127.977 120.433C127.304 120.019 126.886 119.388 126.469 118.757L126.469 118.757C126.251 118.428 126.034 118.099 125.78 117.801L125.68 117.683C125.114 117.014 125.084 116.978 123.914 116.897C123.679 116.881 123.442 116.883 123.171 116.885L123.01 116.886C122.924 116.887 122.833 116.887 122.738 116.887C122.311 116.226 121.927 115.538 121.587 114.828C121.502 114.627 121.38 114.441 121.257 114.254C120.998 113.86 120.739 113.465 120.83 112.934C120.403 112.814 120.199 112.471 120.013 112.16C119.893 111.957 119.78 111.768 119.619 111.663L118.113 111.75L118 112.555C117.851 112.383 117.764 112.283 117.725 112.238L117.13 112.519C117.826 114.825 118.737 117.06 119.853 119.192C120.041 119.511 120.021 119.912 119.802 120.211C119.637 119.873 119.47 119.547 119.307 119.226C118.947 118.52 118.603 117.843 118.317 117.142C117.951 116.244 117.634 115.325 117.317 114.405L117.317 114.404L117.317 114.404L117.317 114.403L117.316 114.402L117.316 114.402C117.18 114.005 117.043 113.608 116.902 113.212C116.048 113.656 116.049 113.658 116.252 114.392L116.261 114.425C116.851 116.561 117.74 118.583 118.627 120.599L118.627 120.6C118.762 120.907 118.897 121.214 119.031 121.521C120.024 123.799 121.111 126.047 122.755 127.973C123.076 128.349 123.451 128.63 123.826 128.91L123.826 128.911C123.996 129.038 124.166 129.165 124.331 129.301C124.56 129.444 124.844 129.46 125.088 129.345C125.392 129.109 125.696 129.086 126.023 129.063L126.087 129.058C126.149 129.053 126.213 129.048 126.278 129.041C126.319 129.036 126.361 129.032 126.404 129.027C126.875 128.979 127.435 128.922 127.624 128.297ZM119.292 86.3785C119.095 86.1162 118.911 85.8571 118.73 85.6036C118.346 85.0652 117.98 84.5523 117.56 84.0886C116.127 82.505 115.448 80.5632 114.769 78.6219C114.61 78.1651 114.45 77.7083 114.281 77.2562C113.944 76.3575 114.111 75.442 114.276 74.5369L114.277 74.5358C114.307 74.3672 114.338 74.1989 114.365 74.0313C114.386 73.9055 114.522 73.7985 114.662 73.6882C114.729 73.6361 114.796 73.5832 114.853 73.5273L114.863 73.5585C115.006 73.982 115.142 74.3834 115.338 74.9629L115.617 72.9798C115.758 72.9328 115.897 72.895 116.032 72.8584C116.325 72.7787 116.597 72.7049 116.816 72.5546C117.149 72.3476 117.568 72.3376 117.91 72.5284C118.16 72.6304 118.369 72.8341 118.588 73.0473C118.685 73.1421 118.784 73.2388 118.89 73.3292C118.523 74.339 118.808 75.2679 119.184 76.2467C119.352 76.2253 119.523 76.2628 119.697 76.301C120.007 76.3692 120.326 76.4395 120.658 76.1804C120.839 76.1048 121.045 76.1244 121.207 76.2326C121.447 76.4283 121.704 76.6082 121.96 76.7883C122.788 77.3686 123.616 77.9501 123.896 79.0606L123.914 79.1353L123.914 79.136C123.975 79.3838 124.046 79.672 124.215 79.7976C124.333 79.8855 124.34 80.0211 124.347 80.1557C124.357 80.3419 124.367 80.5265 124.67 80.5808C124.956 80.6323 124.901 80.8284 124.846 81.0278C124.818 81.1279 124.79 81.2287 124.805 81.3127C124.878 81.6203 124.929 81.9328 124.958 82.2479C124.944 82.5396 124.907 82.8298 124.846 83.1155C123.647 83.9324 122.664 85.0308 121.982 86.3154L119.292 86.3785ZM90.7035 25.3106L90.7012 25.3117C90.1826 25.571 89.6722 25.8263 89.1502 26.054C89.1082 26.0725 89.0147 25.9727 88.8968 25.8467L88.8967 25.8466L88.8965 25.8464C88.834 25.7796 88.7646 25.7055 88.6923 25.6378C88.5465 25.8589 88.3845 26.0688 88.2078 26.2658C87.9864 26.4562 87.7555 26.635 87.5159 26.8015L87.4541 26.8501C87.0096 27.2002 86.5686 27.5475 86.0814 26.8555C86.0575 26.8216 85.9926 26.8196 85.9245 26.8175C85.8821 26.8162 85.8385 26.8148 85.8027 26.8057C85.6344 26.7631 85.466 26.7363 85.2986 26.7096C84.8044 26.6309 84.3185 26.5536 83.8689 26.0742C83.6767 25.8692 83.4579 25.6823 83.2365 25.4931C82.8994 25.205 82.5564 24.9119 82.2924 24.5426C81.8457 23.9945 81.4795 23.3847 81.2048 22.7319C80.8275 21.6712 80.456 20.6229 80.8026 19.489C80.9524 19.1718 81.1395 18.8738 81.3598 18.6013L82.1515 19.4658C82.2464 19.2596 82.3211 19.0407 82.3967 18.8194L82.3968 18.8192C82.5965 18.2348 82.8017 17.634 83.3965 17.2065L84.1998 18.0077L84.3486 16.9492C84.6517 16.9398 84.9488 16.9132 85.2428 16.8869C85.89 16.8289 86.5221 16.7723 87.1705 16.9037C87.6729 16.9839 88.1295 17.2433 88.4569 17.6345C88.588 17.8016 88.7325 17.9561 88.8773 18.111C89.1571 18.4101 89.4381 18.7106 89.6258 19.1054C89.7554 19.3791 89.9193 19.6365 90.0849 19.8964C90.2466 20.1502 90.4097 20.4063 90.5439 20.6824C90.8221 21.2563 90.9473 21.8656 91.0724 22.474C91.1472 22.8382 91.2221 23.2022 91.3296 23.558C91.4243 23.8702 91.3362 24.2386 91.2489 24.6033C91.2096 24.7677 91.1704 24.9315 91.1483 25.0889C91.0014 25.1616 90.8556 25.2345 90.7104 25.3071L90.7035 25.3106ZM25.6712 47.3824L26.1093 44.2658L25.8523 44.1647C25.7564 44.3791 25.6357 44.5946 25.5149 44.81L25.5149 44.81L25.5148 44.8101C25.2407 45.2993 24.9664 45.7886 24.9831 46.2663C24.9906 46.4654 24.9882 46.668 24.9857 46.8726L24.9857 46.8727C24.9779 47.5222 24.9699 48.191 25.277 48.8297C25.4581 49.2063 25.5883 49.6101 25.7184 50.0135C26.02 50.9485 26.3211 51.8821 27.254 52.4732C27.3244 53.2035 27.8574 53.531 28.3691 53.8455C28.5066 53.93 28.6426 54.0136 28.7676 54.1037C29.5765 54.6872 30.4484 55.2668 31.5685 54.7444C32.3139 54.3969 33.0753 54.0844 33.8288 53.7751L33.8291 53.775C34.1583 53.6399 34.486 53.5054 34.8102 53.3689C34.8435 52.9066 34.9121 52.4475 35.0153 51.9957C35.2906 51.1109 34.9899 50.2856 34.597 49.6001C34.367 49.1998 34.279 48.7325 34.3474 48.2748C34.1775 47.8013 33.8719 47.4854 33.5754 47.1789C33.3135 46.9082 33.0586 46.6448 32.9107 46.2865C32.6997 45.9311 32.3394 45.6919 31.9314 45.6365C31.6921 45.6164 31.4539 45.5573 31.2146 45.4981L31.2146 45.4981L31.2146 45.498L31.2145 45.498L31.2145 45.498L31.2145 45.498L31.2144 45.498L31.2144 45.498L31.2143 45.498L31.2143 45.498L31.2143 45.498L31.2142 45.498L31.2142 45.498L31.2142 45.498L31.2141 45.498L31.2141 45.498L31.2141 45.498L31.214 45.498L31.214 45.498L31.214 45.498L31.2139 45.498C30.6719 45.3637 30.1251 45.2282 29.5505 45.5401C29.4627 45.5878 29.3122 45.5037 29.1502 45.4132L29.1502 45.4132C29.0383 45.3507 28.9209 45.2851 28.8149 45.2578C28.7329 45.2365 28.6368 45.2702 28.5093 45.3148C28.4416 45.3385 28.3651 45.3652 28.2771 45.3885C28.3565 45.1073 28.3906 44.8152 28.3779 44.5233C28.3265 44.2809 28.0967 43.8921 27.9455 43.8931C27.498 43.9187 27.0569 44.0134 26.6377 44.1736C26.3214 44.2784 26.305 44.5508 26.289 44.8154C26.2843 44.8939 26.2796 44.9718 26.2671 45.0443C26.2421 45.1886 26.2197 45.3334 26.1972 45.4783L26.1972 45.4784C26.097 46.1246 25.9965 46.7722 25.6712 47.3824ZM51.8327 63.9086L50.1352 61.6414C50.1824 61.0982 50.2669 60.5588 50.3883 60.0273C50.4458 59.8226 50.7727 59.6559 51.0123 59.5647C51.0755 59.5405 51.1863 59.6428 51.2969 59.7448C51.3451 59.7892 51.3932 59.8336 51.4373 59.8675C51.4764 59.811 51.5141 59.751 51.5521 59.6906C51.7748 59.3365 52.0082 58.9655 52.597 59.1687C52.7278 59.2262 52.8754 59.2327 53.0109 59.1867C53.4048 58.9495 53.8302 58.7097 54.264 58.8998C54.4121 58.9646 54.564 59.0264 54.7167 59.0886C55.3661 59.3529 56.0298 59.6232 56.4768 60.15C57.5679 61.4368 58.5837 62.8111 58.9791 64.5036C59.2331 65.5112 59.3898 66.5413 59.447 67.5795C59.4743 68.1241 59.189 68.6368 58.713 68.8985C58.3653 69.0768 58.0214 69.2627 57.6775 69.4485L57.6774 69.4486L57.6771 69.4487L57.677 69.4488L57.6768 69.4489L57.6766 69.449L57.6764 69.4491L57.6763 69.4492L57.676 69.4493L57.6759 69.4494L57.6756 69.4495L57.6755 69.4496L57.6753 69.4497L57.6751 69.4498L57.6749 69.4499L57.6748 69.45L57.6745 69.4501L57.6744 69.4502L57.6741 69.4503L57.674 69.4503C57.1272 69.7459 56.5805 70.0413 56.0195 70.3061C55.689 70.4633 55.3183 70.5136 54.9586 70.4499C52.8864 69.9724 51.531 68.7691 51.2465 66.2979C51.233 66.1801 51.2061 66.059 51.1792 65.9381C51.124 65.6893 51.069 65.4417 51.1312 65.2275C51.3168 64.7637 51.552 64.3214 51.8327 63.9086ZM48.008 115.995L48.0564 116.893C48.3259 116.458 48.4568 116.074 48.1744 115.576C47.9942 115.257 47.8913 114.906 47.7875 114.552L47.7875 114.552C47.6476 114.074 47.5062 113.592 47.1723 113.178C46.9466 112.939 46.7495 112.675 46.585 112.389C45.7957 110.54 44.3582 109.357 42.7284 108.344L42.6911 108.321L42.6648 108.304C42.4781 108.186 42.2286 108.028 42.1303 108.087C41.8164 108.278 41.5992 108.159 41.3689 108.032C41.3139 108.002 41.2581 107.971 41.2001 107.944C41.0317 107.866 40.754 107.788 40.6406 107.87C40.2578 108.148 39.8274 108.253 39.3936 108.358L39.3934 108.358C39.2998 108.381 39.206 108.404 39.1125 108.429C38.9962 108.459 38.7756 108.534 38.9316 108.822C39.0079 108.964 39.0045 109.149 39.0007 109.36C38.9989 109.462 38.9969 109.57 39.0039 109.683C38.3471 109.229 37.7845 108.991 37.2997 109.524C37.3463 109.725 37.3799 109.927 37.4127 110.124L37.4128 110.124L37.4128 110.124L37.4128 110.124L37.4128 110.124L37.4128 110.124L37.4128 110.124L37.4128 110.124L37.4129 110.124L37.4129 110.124L37.4129 110.124L37.4129 110.124L37.4129 110.125L37.4129 110.125L37.4129 110.125L37.4129 110.125L37.413 110.125L37.413 110.125L37.413 110.125C37.4832 110.546 37.5499 110.946 37.7324 111.282C37.9081 111.606 38.0428 111.954 38.1777 112.302C38.4661 113.047 38.7549 113.792 39.4445 114.303C40.067 115.954 41.3687 116.98 42.6753 118.011L42.6753 118.011L42.6762 118.012C42.786 118.099 42.896 118.185 43.0055 118.272C43.4057 118.665 44.0131 118.752 44.5076 118.488C44.5303 118.477 44.5537 118.465 44.5777 118.453C44.78 118.351 45.0249 118.227 45.2966 118.555C45.4328 118.661 45.6089 118.7 45.7769 118.662C45.945 118.624 46.0876 118.512 46.1659 118.358C46.3418 117.945 46.6839 117.662 47.0273 117.378C47.4698 117.013 47.9144 116.646 48.008 115.995ZM145.2 61.4843L145.435 60.6699C145.469 60.7019 145.501 60.7281 145.53 60.7513C145.584 60.794 145.624 60.8267 145.634 60.8671C145.7 61.1289 145.773 61.3889 145.846 61.6488L145.846 61.6493C146.042 62.3452 146.237 63.0409 146.296 63.772L146.304 63.8769C146.354 64.4712 146.402 65.037 145.782 65.4096C145.611 65.512 145.546 65.7195 145.481 65.9271C145.375 66.2634 145.269 66.6 144.716 66.4893C144.207 67.1014 143.555 66.9607 142.924 66.8243L142.875 66.8138C142.699 67.2434 142.494 67.6604 142.261 68.062C141.981 68.4821 141.271 68.5124 140.559 68.1951C140.493 68.1656 140.431 68.1169 140.369 68.069C140.28 67.9992 140.193 67.9311 140.099 67.9263L140.067 67.9246C138.884 67.8628 138.881 67.8627 138.513 66.8476C138.3 66.3473 138.116 65.8354 137.96 65.3141C137.834 64.7107 137.454 64.1925 136.918 63.8941C136.093 63.4002 135.582 62.5113 135.567 61.545C135.545 60.6753 136.05 59.951 136.891 59.4441L137.153 59.9115L137.16 59.9245L137.211 60.0153L137.229 60.0479L137.234 60.0566L137.237 60.0618L137.25 60.0845C137.448 60.4379 137.663 60.8226 137.925 61.2893C137.956 61.0667 137.983 60.8672 138.009 60.6834L138.009 60.6782L138.01 60.6732L138.011 60.6684L138.011 60.6638L138.012 60.6594C138.064 60.2743 138.108 59.9582 138.158 59.6432C138.219 59.268 138.254 59.259 138.665 59.154C138.769 59.1272 138.898 59.0943 139.058 59.0476C139.248 58.9917 139.457 59.0007 139.666 59.0096C140.073 59.0269 140.479 59.0443 140.748 58.5863L142.318 58.7462C143.285 58.8432 144.124 59.0686 144.421 60.2073C144.501 60.5171 144.705 60.7938 144.916 61.0799C145.013 61.2113 145.112 61.3447 145.2 61.4843ZM0.494397 46.5354C0.456229 47.4442 1.02682 48.2655 1.88797 48.5411L2.56486 47.3886C2.69801 48.2031 2.95401 48.8398 3.84804 49.0667C4.02002 48.8074 4.20499 48.557 4.40223 48.3165C4.4565 48.2556 4.53044 48.2049 4.60367 48.1547C4.81005 48.013 5.01084 47.8753 4.75029 47.5246L5.60408 47.7112C5.87263 47.2916 6.23197 46.731 6.56881 46.2059C6.65553 46.2412 6.74037 46.2763 6.8239 46.3109L6.8254 46.3115C7.09207 46.4218 7.34536 46.5266 7.60374 46.6163C7.64902 46.6336 7.79433 46.5215 7.79885 46.4614C7.8081 46.3311 7.79558 46.1173 7.72108 46.08C7.64648 46.0427 7.54995 46.0363 7.45658 46.0301C7.34406 46.0227 7.23613 46.0156 7.17666 45.9549C7.10933 45.8871 7.10829 45.7528 7.10688 45.5698C7.10614 45.4745 7.10531 45.3661 7.09496 45.247L7.60185 45.8454C7.64875 45.5117 7.69505 45.1838 7.74072 44.8603L7.74076 44.86L7.7408 44.8597C7.90849 43.6719 8.06768 42.5443 8.2166 41.4154C8.22547 41.3474 8.1924 41.2758 8.15863 41.2027C8.13238 41.1459 8.1057 41.0881 8.09796 41.0304C8.05518 40.7116 7.95376 40.3995 7.85432 40.0936C7.65823 39.4903 7.46982 38.9107 7.75398 38.3488C7.5821 37.5449 7.03492 37.4232 6.5205 37.3089C6.18309 37.2338 5.85977 37.1619 5.66569 36.9027C5.46825 36.9734 5.27491 37.0634 5.08644 37.1511C4.68088 37.3399 4.29792 37.5182 3.94543 37.4708C3.55898 37.4189 3.2495 37.5791 2.94604 37.7362C2.63666 37.8964 2.33353 38.0533 1.96148 37.979C1.86603 37.9598 1.62207 38.2151 1.6035 38.3644C1.56991 38.6328 1.45176 38.8626 1.33223 39.095C1.19888 39.3544 1.06381 39.617 1.04256 39.9404C0.961767 41.2079 0.786332 42.4677 0.517746 43.7091C0.373292 44.368 0.414763 45.0187 0.455944 45.6648C0.474491 45.9558 0.492979 46.2459 0.494397 46.5354ZM98.4258 130.207L98.4254 130.207L98.425 130.207C97.8155 130.08 97.2681 129.966 96.8635 130.627C96.3679 129.733 96.3766 129.149 97.0873 128.594C97.2679 128.453 97.4307 128.294 97.5944 128.135L97.5944 128.135L97.5945 128.135L97.5946 128.135L97.5946 128.135L97.5947 128.135L97.5947 128.135L97.5948 128.135L97.5948 128.135L97.5949 128.135L97.5949 128.135L97.595 128.135L97.595 128.135L97.5951 128.135L97.5951 128.134L97.5952 128.134C97.8761 127.861 98.1594 127.585 98.5386 127.392C98.8421 127.236 99.0637 126.932 99.2889 126.622C99.4536 126.396 99.6203 126.167 99.8225 125.992C100.077 125.771 100.398 125.629 100.718 125.486C100.862 125.422 101.005 125.358 101.142 125.288L101.554 125.827L100.808 126.217L100.859 126.402L101.91 126.383C101.931 126.428 101.951 126.49 101.973 126.56C102.033 126.746 102.11 126.987 102.275 127.106C103.639 128.083 104.397 129.503 105.106 130.95C105.244 131.232 105.308 131.548 105.372 131.866L105.372 131.866C105.417 132.085 105.461 132.304 105.53 132.513L105.597 132.716C105.958 133.81 106.047 134.08 105.737 135.074C105.499 135.835 105.241 136.646 104.543 137.196C104.241 137.404 104.016 137.707 103.903 138.057C103.758 138.862 103.297 138.929 102.653 138.796C102.469 138.76 102.281 138.754 102.095 138.778C100.917 138.926 100.805 138.878 100.362 137.924C99.8168 136.748 99.5923 135.486 99.3682 134.226L99.3682 134.226C99.3231 133.973 99.278 133.719 99.2303 133.467C99.0904 132.727 98.9921 131.98 98.8951 131.243L98.8949 131.242C98.8521 130.917 98.8096 130.593 98.7638 130.273C98.6494 130.254 98.5366 130.231 98.4258 130.207ZM82.3065 111.498C82.4197 111.584 82.5332 111.67 82.6463 111.758C82.8815 111.279 83.2699 110.92 83.6246 111.261C84.13 111.75 84.2762 111.366 84.3913 111.048C84.4137 110.986 84.4313 110.92 84.4487 110.855C84.5091 110.63 84.5681 110.409 84.8168 110.365C85.2044 110.297 85.4265 110.036 85.6457 109.778C85.7401 109.667 85.834 109.556 85.9403 109.462C86.2262 109.209 86.5364 108.755 86.5064 108.421C86.4291 107.852 86.2279 107.308 85.9172 106.826C85.743 106.538 85.5057 106.289 85.2676 106.039C85.111 105.875 84.9541 105.711 84.8147 105.534C84.6377 105.311 84.4684 105.08 84.2991 104.85C83.8187 104.195 83.3379 103.541 82.6802 103.044C82.3913 102.826 82.1288 102.573 81.8663 102.32L81.8662 102.32C81.3732 101.845 80.8803 101.37 80.213 101.127C79.5425 100.935 78.9529 100.528 78.5336 99.9685C78.0846 99.328 77.6678 99.3582 76.871 99.7652C76.7752 99.8141 76.6585 99.8604 76.5409 99.9071C76.2644 100.017 75.9833 100.128 75.9589 100.28C75.895 100.673 75.6651 100.645 75.4361 100.616C75.2253 100.591 75.0153 100.565 74.9359 100.867C75.3705 102.416 76.2677 103.816 77.1601 105.21C77.2622 105.369 77.3643 105.528 77.4656 105.688C78.0965 106.681 78.8206 107.613 79.5449 108.546L79.5451 108.547C79.8978 109.001 80.2506 109.455 80.5927 109.917C81.0671 110.556 81.6817 111.023 82.3065 111.498ZM139.356 107.964L139.356 107.964L139.336 107.914C138.863 106.743 138.474 105.54 138.17 104.314C138.105 104.047 138.024 103.781 137.943 103.514C137.65 102.555 137.352 101.575 137.791 100.474C138.282 100.933 138.438 101.53 138.601 102.149C138.749 102.713 138.902 103.295 139.316 103.806C139.329 102.957 139.143 102.189 138.95 101.392C138.801 100.779 138.648 100.149 138.578 99.4507L139.453 100.107C139.533 99.8605 139.617 99.6019 139.701 99.3442L141.11 99.275C141.14 99.3427 141.172 99.4196 141.206 99.5025L141.206 99.5026L141.207 99.504C141.293 99.7085 141.394 99.9492 141.513 100.18C142.163 101.437 142.174 101.443 143.549 102.164L143.583 102.182C143.74 102.272 143.886 102.379 144.019 102.5C145.066 103.393 145.997 104.363 146.451 105.723C146.667 106.334 146.762 106.982 146.732 107.631C146.732 107.768 146.777 107.901 146.86 108.01C146.942 108.104 146.968 108.234 146.929 108.353C146.89 108.472 146.792 108.561 146.671 108.589C146.284 108.742 145.994 109.02 145.704 109.297C145.47 109.521 145.236 109.745 144.952 109.903C144.713 110.058 144.554 110.31 144.513 110.592C144.394 110.999 143.509 111.423 143.144 111.283C143.069 111.254 143.008 111.184 142.948 111.114C142.827 110.975 142.706 110.835 142.465 111.017C142.281 111.175 142.107 111.344 141.944 111.524C140.415 110.623 139.88 109.279 139.356 107.964ZM99.0518 71.1261L99.9532 71.1033C100.184 70.8128 100.15 70.4886 100.117 70.1625C100.087 69.8676 100.056 69.5711 100.221 69.2967C100.263 69.1419 100.194 68.9784 100.053 68.9022C99.9131 68.826 99.739 68.8572 99.6332 68.9774C99.5857 69.0134 99.4638 68.9503 99.3421 68.8873C99.2861 68.8583 99.2301 68.8293 99.1814 68.81C99.1992 68.7706 99.2182 68.72 99.2371 68.6693C99.2777 68.5607 99.3184 68.4522 99.3478 68.4551C100.12 68.5323 99.9818 67.8571 99.9157 67.5686C99.8606 67.3267 99.8093 67.0831 99.758 66.8392C99.5486 65.8437 99.3382 64.8431 98.8555 63.939L98.849 63.9269C98.5982 63.4575 98.2789 62.8598 97.5331 63.3193C97.4944 63.3418 97.3883 63.3014 97.3401 63.2593C96.8105 62.7969 96.4201 62.9723 96.096 63.5169C95.8129 63.9923 95.6183 63.7297 95.4659 63.5242L95.4395 63.4887L94.5575 64.0099L94.709 65.2953C94.5664 65.1838 94.4868 65.0324 94.4089 64.8842C94.2757 64.6306 94.1472 64.3862 93.716 64.3657L93.6031 64.5103L93.6029 64.5106L93.6022 64.5114L93.6015 64.5123L93.6013 64.5126L93.6008 64.5133C93.4907 64.6546 93.368 64.812 93.2433 64.9678C93.1825 65.0432 93.1231 65.1368 93.0636 65.2305C92.932 65.4379 92.8002 65.6457 92.653 65.6566C92.0441 65.702 92.1368 66.0405 92.2205 66.3463C92.2314 66.3862 92.2422 66.4254 92.2512 66.4634C92.3548 66.9009 92.4792 67.3333 92.6037 67.7658C92.6912 68.0698 92.7787 68.3739 92.859 68.6799C92.8893 68.8673 92.9006 69.0573 92.8928 69.2471L92.6482 69.2899C92.3465 68.2611 92.045 67.2324 91.7064 66.0769C91.372 66.9352 91.5494 67.5739 91.7508 68.2686C92.0726 69.366 92.5339 70.4167 93.1234 71.3947C93.8661 72.6359 94.8147 73.7124 96.4761 73.6384C96.611 73.6434 96.7451 73.6611 96.8766 73.6913L99.3135 71.8429L99.0518 71.1261ZM99.0821 39.3727L99.5944 40.0573L99.7007 39.6491C99.7623 39.4125 99.8201 39.1905 99.8809 38.956C100.063 38.9436 100.246 38.9285 100.431 38.9134C100.87 38.8775 101.316 38.841 101.763 38.8375C102.151 38.8352 102.537 38.8909 102.909 39.0026C103.027 39.0382 103.042 39.1481 103.059 39.2725C103.083 39.4439 103.11 39.643 103.416 39.7137C103.697 39.7785 103.871 40.2198 104.028 40.6218L104.028 40.6222L104.029 40.6228L104.029 40.6241C104.062 40.7066 104.093 40.7875 104.125 40.863C104.174 40.9793 104.166 41.1283 104.158 41.279C104.141 41.5971 104.123 41.9231 104.64 41.9659L104.52 43.3917C104.517 43.4236 104.518 43.4558 104.519 43.488L104.52 43.5155L104.52 43.5309L106.363 45.9911C106.6 46.0077 106.835 46.0432 107.067 46.0973C107.417 46.2052 107.753 46.6167 107.538 46.8126C107.282 47.0456 107.36 47.2814 107.434 47.5055C107.498 47.6999 107.559 47.8853 107.397 48.0524C106.234 48.2325 105.877 48.22 104.991 47.9327C105.149 48.4596 105.286 48.9189 105.459 49.4959C105.41 49.5316 105.354 49.5844 105.296 49.6403C105.156 49.7724 104.999 49.9219 104.867 49.9022C104.614 49.8648 104.357 49.8412 104.099 49.8174C103.144 49.7297 102.184 49.6414 101.443 48.8553C101.161 48.6129 100.905 48.3402 100.682 48.042C100.323 47.4315 100.008 46.7949 99.6927 46.159L99.592 45.9557L99.5322 45.8355C99.4265 45.6232 99.3334 45.4047 99.2402 45.1862C99.1724 45.0274 99.1047 44.8685 99.0321 44.712C98.9312 44.494 98.8983 44.2519 98.8653 44.0098C98.8111 43.6117 98.7569 43.2138 98.4012 42.9241C98.5423 42.4446 98.4053 42.0188 98.2652 41.5835L98.2651 41.5833C98.2222 41.4499 98.179 41.3156 98.1434 41.1786C98.0205 40.8144 98.0513 40.4153 98.2286 40.0741C98.406 39.7329 98.7145 39.4794 99.0821 39.3727ZM58.8886 11.7673L57.5559 11.58C56.6984 11.3616 55.8021 11.3445 54.9362 11.5299C54.5659 11.6073 54.2265 11.7826 53.8844 11.9592C53.5367 12.1387 53.1863 12.3196 52.7981 12.4005C52.7104 12.4186 52.6106 12.6173 52.6024 12.7377C52.574 13.1093 52.572 13.4824 52.5965 13.8542C52.6473 14.548 52.9641 15.1348 53.2819 15.7235C53.3774 15.9004 53.473 16.0774 53.5615 16.2576C54.3173 17.7947 55.3086 19.0073 57.1358 19.2282C57.2733 19.2361 57.4031 19.2944 57.5008 19.392C57.7971 19.8177 58.1031 19.6861 58.4078 19.5551C58.5743 19.4835 58.7404 19.412 58.9043 19.4318C59.3785 18.8704 60.0444 18.6412 60.6938 18.4178C60.924 18.3386 61.1522 18.2601 61.369 18.1677C62.1065 17.8535 62.3605 17.4492 62.3005 16.8279C62.2886 16.7044 62.2782 16.58 62.2678 16.4552C62.1861 15.4787 62.1028 14.4821 61.2913 13.7416C61.1828 13.642 61.1013 13.5117 61.0195 13.3811C60.8482 13.1076 60.6761 12.8327 60.2544 12.8362C60.1297 12.8088 60.0281 12.7184 59.9859 12.5973C59.9742 11.9035 59.5055 11.845 59.0341 11.7862C58.9855 11.7801 58.9368 11.774 58.8886 11.7673ZM45.3393 81.7128C45.5035 82.0768 45.6241 82.3445 45.8588 82.8642C45.9122 82.6729 45.9525 82.5302 45.9844 82.4174L45.9846 82.4168L45.9848 82.4162C46.0355 82.2368 46.0649 82.1329 46.0917 82.0279L46.0922 82.0259C46.1582 81.7667 46.1939 81.6266 46.2839 81.5535C46.39 81.4674 46.5714 81.4743 46.9663 81.4892L46.9683 81.4893C46.9917 81.4902 47.0181 81.4929 47.0451 81.4956C47.1239 81.5037 47.2078 81.5123 47.2372 81.4775C47.5778 81.0371 48.1815 80.9024 48.6741 81.1571C49.2594 81.3921 49.7926 81.7412 50.243 82.1844C51.8185 83.9525 52.5847 86.1335 53.0986 88.4054C53.1587 88.6707 53.0907 88.9654 53.0232 89.2582C52.9921 89.3929 52.9612 89.5271 52.9428 89.6579L52.4003 89.5191C52.3632 90.0451 52.192 90.4142 51.5693 90.4528C51.3369 90.5017 51.1433 90.6629 51.0522 90.8836C50.9635 91.2515 50.7163 91.2607 50.4738 91.2697C50.3086 91.2759 50.1455 91.2819 50.0363 91.4015C49.8885 91.0695 49.6168 91.0873 49.3432 91.1052C49.1048 91.1209 48.8649 91.1366 48.7047 90.9208C48.5891 90.7648 48.4547 90.6174 48.3207 90.4704C48.0722 90.1978 47.8251 89.9268 47.7021 89.6054C47.2566 88.5226 46.9286 87.3943 46.724 86.2403C46.683 85.7285 46.4378 85.2556 46.0442 84.9293C45.4055 84.453 44.9332 83.7855 44.6951 83.0222L44.6873 82.996C44.4971 82.3578 44.4957 82.3531 45.3393 81.7128ZM74.8553 68.0977C74.8042 68.2677 74.7754 68.4437 74.7697 68.6211C74.9876 69.0455 75.2409 69.4273 75.4891 69.8015C75.6072 69.9794 75.724 70.1555 75.8354 70.3337C76.5221 71.4406 77.2298 72.5762 78.4495 73.284C79.264 73.7561 80.0792 73.7643 80.6166 73.2218C80.7705 73.0663 80.9742 72.9664 81.177 72.867C81.5397 72.6891 81.8994 72.5126 81.9662 72.0225C82.7716 72.0208 82.7295 71.3448 82.6659 70.912C82.4884 69.7014 82.2779 68.4727 81.5794 67.4256C81.4509 67.2328 81.2841 67.0664 81.1171 66.8998L81.117 66.8998C80.9627 66.7458 80.8081 66.5916 80.6836 66.4163C80.4776 66.1265 80.3056 65.8123 80.1199 65.4732L80.1198 65.473C80.0355 65.3191 79.9484 65.1601 79.8541 64.9958L77.6746 65.1098L77.6097 65.3187L77.5662 65.4585L77.5654 65.461C77.5101 65.6386 77.454 65.8187 77.3866 66.0371L75.9675 64.4949C75.8418 64.5849 75.7192 64.6919 75.6037 64.7928C75.3687 64.9981 75.1628 65.178 75.0183 65.1373C74.7836 65.0716 74.5758 65.1111 74.368 65.1506C74.164 65.1893 73.96 65.228 73.7306 65.1675C73.8332 65.3537 74.0343 65.4122 74.2282 65.4686C74.5285 65.5561 74.8115 65.6385 74.6838 66.1827L74.0508 65.7965C73.7273 66.451 74.1389 66.7821 74.5664 67.126L74.5667 67.1263C74.6087 67.16 74.6508 67.1939 74.6924 67.2283C74.654 66.9643 74.6171 66.7002 74.571 66.3728C74.7214 66.4123 74.8639 66.4771 74.9926 66.5646C75.1243 66.6985 75.2197 66.8642 75.2695 67.0459C75.2802 67.0953 75.2335 67.1533 75.1839 67.2148C75.1386 67.2711 75.0909 67.3303 75.0827 67.3886C75.0742 67.4541 75.0984 67.526 75.1221 67.5965C75.1482 67.6743 75.1738 67.7506 75.1545 67.815C75.1372 67.8729 75.0719 67.9154 75.0058 67.9583C74.9423 67.9996 74.878 68.0413 74.8553 68.0977ZM95.9125 90.8016L96.5932 91.1474C96.7147 90.491 96.4177 90.0377 96.1166 89.5781C95.8607 89.1876 95.6019 88.7925 95.5944 88.2643C95.7978 88.3647 95.9894 88.4878 96.1656 88.6311C96.3929 88.8992 96.6063 89.179 96.8048 89.4694C96.838 89.0251 96.713 88.5837 96.4523 88.2241C96.9507 87.7659 97.1696 87.5647 97.4238 87.498C97.623 87.4458 97.8438 87.4761 98.2376 87.5303C98.3633 87.7208 98.48 87.9266 98.5978 88.1343L98.5978 88.1343C98.8682 88.6112 99.1441 89.0977 99.5462 89.4298C99.9338 89.7502 100.124 90.1574 100.312 90.5617C100.433 90.8217 100.554 91.0805 100.726 91.3143C101.118 91.9287 101.417 92.5988 101.612 93.3025C101.765 93.6857 101.803 94.106 101.72 94.5109C101.58 94.9675 101.286 95.6262 100.939 95.713C100.541 95.8126 100.453 96.0377 100.363 96.2688C100.324 96.3691 100.284 96.4704 100.218 96.5631C99.9223 96.9816 99.542 97.3757 98.9438 97.3904C98.8171 97.3935 98.678 97.4226 98.541 97.4512L98.5409 97.4512C98.3004 97.5014 98.0665 97.5502 97.9172 97.4555C97.3251 97.109 96.8051 96.651 96.3854 96.1065C95.6746 95.0629 95.0315 93.9743 94.4599 92.8473C94.3627 92.6614 94.3944 92.4072 94.4317 92.1081L94.4317 92.1081L94.4317 92.1079C94.4507 91.9559 94.4711 91.7923 94.4768 91.6202L94.958 92.137C94.9559 91.6346 95.2556 91.3938 95.5384 91.1666C95.6809 91.0521 95.8192 90.941 95.9125 90.8016ZM80.1255 142.475L80.8358 143.008C80.8246 142.509 80.7797 142.01 80.7015 141.517C80.6527 141.314 80.4217 141.006 80.2709 141.004C79.9401 141.001 79.7688 140.792 79.6093 140.598C79.5062 140.472 79.4079 140.352 79.2746 140.298C78.9369 140.161 78.7693 139.917 78.6027 139.675C78.5376 139.58 78.4726 139.485 78.3976 139.397C78.2459 139.219 78.1139 139.016 77.9826 138.815C77.76 138.473 77.5396 138.134 77.229 137.925C76.9195 137.716 76.7133 137.445 76.5097 137.178C76.3781 137.005 76.2476 136.834 76.0909 136.682C75.8146 136.413 75.5333 136.15 75.2528 135.887L75.2526 135.887L75.2524 135.886L75.2522 135.886L75.252 135.886L75.2511 135.885L75.2503 135.884L75.1052 135.748C75.0299 135.678 74.9548 135.607 74.8799 135.537L73.3166 135.317C73.3974 135.865 73.1233 135.827 72.8469 135.789C72.6307 135.759 72.4131 135.729 72.3626 135.979C72.3179 136.175 72.4467 136.327 72.5767 136.48C72.7578 136.693 72.9413 136.909 72.6624 137.253C72.5948 137.176 72.5317 137.091 72.4691 137.007C72.2211 136.673 71.9809 136.349 71.4942 136.562C71.4161 137.407 71.8816 137.996 72.3474 138.585L72.4144 138.67C72.5112 138.779 72.5982 138.897 72.6742 139.021C73.4166 140.444 74.2633 141.81 75.2074 143.106C75.3185 143.257 75.3933 143.434 75.4682 143.611C75.5377 143.776 75.6072 143.941 75.7059 144.084L75.7467 144.144C76.1092 144.675 76.4842 145.223 77.2409 145.223C77.3229 144.919 77.2007 144.661 77.0808 144.407C76.9362 144.102 76.795 143.803 77.0201 143.44L78.2749 145.116L79.1032 144.777L78.6486 143.1C79.5463 143.659 79.634 143.609 80.1255 142.475ZM84.5702 44.465C84.7386 44.5003 84.8939 44.4989 85.0415 44.4975C85.3252 44.4948 85.581 44.4923 85.849 44.7514L85.24 44.8709C85.264 45.035 85.2895 45.1991 85.315 45.3633L85.315 45.3636L85.3151 45.3639L85.3151 45.3642L85.3152 45.3645C85.3837 45.8064 85.4523 46.2488 85.4933 46.692C85.5078 46.8485 85.3871 47.136 85.2757 47.1656C84.916 47.262 84.6769 47.5085 84.4401 47.7525C84.2726 47.9251 84.1063 48.0965 83.8994 48.2126C83.65 48.3209 83.3775 48.3639 83.1073 48.3373C83.0408 48.3355 82.9758 48.279 82.911 48.2227C82.8466 48.1666 82.7823 48.1107 82.7166 48.1086C82.537 48.139 82.3643 48.2023 82.2072 48.2953L82.1983 48.2293C82.084 47.3778 82.0781 47.3338 81.1728 46.8737C80.8277 46.6985 80.6815 46.4027 80.5334 46.1028C80.443 45.9198 80.3518 45.7353 80.2142 45.5758L79.9763 45.9417L79.8463 46.1418C79.8063 46.0854 79.7555 46.029 79.7059 45.9738C79.6024 45.8587 79.5037 45.749 79.5172 45.6556C79.7681 43.9263 79.7721 43.8867 79.1325 42.7397C78.7992 43.1726 78.9506 43.552 79.1108 43.9537C79.217 44.2198 79.3271 44.4958 79.3027 44.8034C79.2356 44.7831 79.1568 44.7674 79.0801 44.752C78.9215 44.7203 78.7721 44.6904 78.7559 44.626C78.7201 44.4848 78.6799 44.3442 78.6397 44.2037C78.4085 43.3949 78.1793 42.5931 78.7992 41.7396C78.8278 41.7003 78.8536 41.6633 78.8778 41.6287C79.0455 41.3886 79.1331 41.263 79.4849 41.3066C79.7552 41.3125 80.0225 41.2478 80.2608 41.1188C80.7015 40.9182 81.1341 40.7 81.5868 40.4717L81.5869 40.4716L81.5876 40.4713C81.7746 40.3769 81.9649 40.2809 82.1607 40.1837L82.3474 40.5746C82.5312 40.7459 82.7498 40.6952 82.9371 40.6517C83.1934 40.5922 83.391 40.5463 83.3605 41.1013C83.3548 41.2065 83.4537 41.1882 83.5717 41.1663C83.7598 41.1314 83.9966 41.0875 83.9357 41.521C83.9091 41.7101 84.1219 41.9331 84.3265 42.1475L84.3266 42.1476L84.3266 42.1476C84.4173 42.2426 84.5063 42.3359 84.5723 42.4239C84.5047 42.5467 84.4386 42.6662 84.3734 42.7842L84.2178 43.066C84.2816 43.1258 84.3456 43.1855 84.4098 43.2449L84.6007 42.9784L84.929 42.5199C85.0686 42.8597 85.1664 43.0975 85.265 43.3371L85.3882 43.6365C85.1363 43.8922 84.8532 44.1787 84.5702 44.465ZM29.219 79.7806L29.949 81.0327C30.1345 80.9421 30.3092 80.8307 30.4698 80.7005C30.5692 80.551 30.6599 80.3957 30.7414 80.2355L30.7569 80.2118L30.7569 80.2117C30.8478 80.072 30.9923 79.8499 31.0328 79.8659C31.3533 79.9934 31.6093 79.8243 31.8645 79.6556C32.1381 79.4748 32.411 79.2944 32.7618 79.4805C32.8282 79.3763 32.889 79.2686 32.944 79.1579C32.6763 78.982 32.7595 78.7812 32.8418 78.5826C32.8851 78.4782 32.9281 78.3744 32.9198 78.2751C32.8841 77.8477 32.7105 77.486 32.5389 77.1285C32.4175 76.8757 32.2972 76.625 32.2272 76.3546C31.9321 75.1827 31.3723 74.0954 30.5916 73.1771L27.5818 73.1796L27.3831 74.5938C27.169 74.4814 27.0373 74.2806 26.9096 74.0859C26.7263 73.8064 26.5513 73.5395 26.1525 73.5642C25.867 74.3385 25.7847 75.1136 26.1366 75.7897C26.4278 76.3491 26.6715 76.9288 26.9148 77.5077C27.1495 78.0662 27.384 78.6239 27.6606 79.1623C27.8998 79.6916 28.2745 80.1473 28.7464 80.4829L29.219 79.7806ZM59.4541 103.094L59.8389 104.504L60.2048 103.834C60.2114 103.839 60.2186 103.845 60.2261 103.85C60.24 103.86 60.2551 103.87 60.2701 103.88C60.3192 103.911 60.3677 103.943 60.3722 103.979C60.4283 104.486 60.6142 104.97 60.9119 105.382C61.0849 105.652 61.22 105.945 61.3134 106.253C61.466 106.782 61.8706 107.199 62.3923 107.365C62.5113 107.189 62.634 107.007 62.6909 106.923L63.399 107.63C63.389 107.702 63.3842 107.757 63.3805 107.8C63.3749 107.864 63.3721 107.896 63.3577 107.903C63.1322 108.009 62.9037 108.109 62.6869 108.203L62.5172 108.277C62.532 108.683 62.5453 109.052 62.5651 109.604L61.6247 108.967L61.2201 109.561L60.8767 110.066L60.1668 110.048L60.0761 110.693C59.2743 111.138 58.6909 110.981 58.1432 110.316C57.9169 110.041 57.676 109.778 57.4319 109.512L57.4317 109.512C57.0323 109.076 56.6239 108.63 56.2553 108.106L57.2268 107.639C57.1422 107.021 56.9282 106.428 56.5989 105.899C56.362 105.502 56.2264 105.044 56.093 104.593L56.093 104.593C56.0351 104.398 55.9776 104.204 55.9125 104.017C56.3052 103.649 56.5622 103.844 56.8329 104.05C56.9046 104.104 56.9772 104.159 57.0535 104.205C57.0655 104.159 57.0829 104.112 57.0999 104.066C57.1356 103.97 57.1698 103.878 57.1485 103.802C56.9513 103.106 57.1217 102.8 57.7393 102.858C58.1413 102.896 58.5411 102.957 58.9351 103.017C59.1094 103.043 59.2825 103.07 59.4541 103.094ZM18.1036 104.181L17.561 103.063L17.5209 103.083L17.4589 103.112C17.1703 103.248 16.9163 103.368 16.8158 103.787C16.5864 104.741 16.8523 105.61 17.1174 106.476C17.1856 106.699 17.2538 106.922 17.3134 107.146C17.433 107.595 18.1364 107.835 18.7275 107.79C18.964 107.777 19.2011 107.795 19.433 107.843C20.0103 107.984 20.5969 107.643 20.7625 107.068C20.9106 106.668 21.0495 106.406 21.4958 106.344C21.8925 106.317 22.1963 105.977 22.1815 105.578C22.1844 105.537 22.1866 105.497 22.1888 105.456C22.2068 105.124 22.2254 104.782 22.5961 104.562C22.711 104.403 22.7383 104.196 22.6686 104.013C22.6255 103.929 22.5167 103.866 22.4148 103.807C22.3072 103.745 22.2074 103.687 22.2006 103.613C22.1921 103.521 22.2697 103.426 22.3501 103.327C22.424 103.236 22.5003 103.142 22.5148 103.045C22.617 102.365 22.1637 101.937 21.6624 101.658C21.5283 101.583 21.3714 101.557 21.2108 101.53C20.9685 101.49 20.7175 101.449 20.5223 101.235C20.5044 101.216 20.3701 101.309 20.2118 101.42L20.2115 101.42L20.2115 101.42C20.0853 101.508 19.944 101.607 19.8343 101.667C19.6982 101.717 19.5562 101.748 19.4121 101.76L19.2453 102.947C19.1209 102.554 19.0584 102.356 19.0072 102.194L18.1676 102.076C18.1812 102.241 18.195 102.401 18.2086 102.557L18.2086 102.557C18.2451 102.977 18.2791 103.369 18.297 103.761C18.3004 103.834 18.2567 103.908 18.2004 104.004C18.17 104.056 18.136 104.114 18.1036 104.181ZM67.5279 83.437L68.6728 83.9568C68.9337 83.5164 69.0546 83.0752 68.7014 82.5989C69.0397 82.3668 69.2614 82.534 69.4913 82.7074C69.6493 82.8266 69.8112 82.9487 70.0176 82.9462L70.2702 82.1892C70.4951 82.0068 70.6685 82.1237 70.8513 82.2469C71.032 82.3687 71.2219 82.4967 71.48 82.3482C71.801 82.1644 71.9315 82.3898 72.071 82.6306C72.1629 82.7893 72.2587 82.9548 72.4156 83.0142C72.6491 83.1484 72.8366 83.3506 72.9534 83.5943C73.1409 83.9061 73.2415 84.2554 73.3425 84.6064C73.4829 85.094 73.6243 85.585 74.001 85.984C74.1046 86.0938 74.0675 86.3378 74.0252 86.6163C74.0041 86.7555 73.9816 86.9033 73.9748 87.0472C73.5884 86.7838 73.3394 86.9935 73.0892 87.2043C72.8516 87.4044 72.6129 87.6056 72.2542 87.4031C72.1654 87.5106 72.1149 87.6528 72.0634 87.7981C71.9438 88.1349 71.8184 88.4879 71.1974 88.461L70.8603 87.636L70.6391 87.9716L70.4094 88.3198C69.9241 88.3654 69.7519 87.9501 69.6303 87.6567L69.6135 87.6163C69.2194 86.6619 68.5899 85.8246 67.7843 85.1836C67.2778 84.7736 67.051 84.1896 67.5279 83.437ZM63.8926 45.0456L65.9279 43.8581C65.915 43.7081 65.9151 43.543 65.9152 43.3718C65.9154 42.9722 65.9156 42.5392 65.7499 42.1855C65.3444 41.2742 64.8005 40.4319 64.1378 39.6888C63.3544 38.8533 62.3935 38.1203 61.1387 39.0075C61.0582 39.0643 60.9413 39.0689 60.8094 39.074C60.7407 39.0766 60.6679 39.0794 60.5941 39.0899C60.6013 39.2234 60.5957 39.3561 60.5904 39.4825C60.5795 39.7406 60.5697 39.9725 60.6717 40.1321C60.7404 40.2395 60.811 40.3456 60.8814 40.4515C61.301 41.0821 61.7145 41.7036 61.6618 42.5314C62.047 42.947 62.2018 43.4645 62.3555 43.978C62.4477 44.2861 62.5394 44.5928 62.6802 44.8752L63.8926 45.0456Z" fill="#F5D3AB"/>
</svg>
